<?xml version="1.0" encoding="iso-8859-1"?>
<!-- Generator: Adobe Illustrator 16.0.0, SVG Export Plug-In . SVG Version: 6.00 Build 0)  -->
<!DOCTYPE svg PUBLIC "-//W3C//DTD SVG 1.1//EN" "http://www.w3.org/Graphics/SVG/1.1/DTD/svg11.dtd">
<svg version="1.1" id="Layer_1" xmlns="http://www.w3.org/2000/svg" xmlns:xlink="http://www.w3.org/1999/xlink" x="0px" y="0px"
	 width="612px" height="612px" viewBox="0 0 612 612" style="enable-background:new 0 0 612 612;" xml:space="preserve">
<g>
	<g>
		<path d="M494.199,280.398V101.165c39.124,10.681,66.321,45.444,66.321,86.434H612c0-69.865-49.849-127.582-117.801-139.156V0.214
			h-51.479v48.691C378.886,61.579,328.05,119.273,328.05,188.113c0,68.924,50.836,126.47,114.671,139.004V505.97
			c-35.006-11.501-62.377-45.631-62.377-85.687h-51.479c0,68.982,50.021,126.135,113.855,138.708v52.795h51.479v-52.354
			c67.952-11.646,116.987-69.816,116.987-139.535C611.187,350.249,562.151,292.129,494.199,280.398z M379.53,187.983
			c0-40.267,28.187-74.525,63.192-86.063v172.171C407.715,262.601,379.53,228.304,379.53,187.983z M494.199,506.702V333.188
			c39.124,10.827,65.508,45.633,65.508,86.709C559.707,461.092,533.323,495.982,494.199,506.702z"/>
	</g>
	<g>
		<path d="M141.393,101.778c49.391,0,89.919,40.518,89.919,89.938h51.479c0-78.248-63.62-141.417-141.396-141.417
			S0,113.52,0,191.414v229.17c0,77.895,63.618,141.114,141.393,141.114c77.776,0,141.396-63.169,141.396-141.417H231.31
			c0,49.42-40.526,89.938-89.919,89.938c-49.387,0.002-89.912-40.125-89.912-89.634V191.414
			C51.479,141.905,92.003,101.778,141.393,101.778z"/>
	</g>
</g>
<g>
</g>
<g>
</g>
<g>
</g>
<g>
</g>
<g>
</g>
<g>
</g>
<g>
</g>
<g>
</g>
<g>
</g>
<g>
</g>
<g>
</g>
<g>
</g>
<g>
</g>
<g>
</g>
<g>
</g>
</svg>
