<svg id="Capa_1" enable-background="new 0 0 475.293 475.293" height="512" viewBox="0 0 475.293 475.293" width="512" xmlns="http://www.w3.org/2000/svg"><path d="m68.535 257.301 163.382 68.317c1.828.769 3.786 1.146 5.729 1.146 1.944 0 3.902-.377 5.729-1.146l163.382-68.317c4.177-1.741 7.325-5.294 8.558-9.646 1.233-4.337.421-9.022-2.205-12.692l-163.381-228.74c-2.784-3.9-7.429-6.221-12.076-6.223-4.651-.002-9.303 2.319-12.089 6.223l-163.382 228.74c-2.625 3.67-3.438 8.355-2.205 12.692 1.233 4.352 4.381 7.905 8.558 9.646zm183.965 32.3v-228.396l125.626 175.876zm-29.706-228.396v228.396l-125.626-52.52z"/><path d="m413.576 304.92c-3.887-6.092-11.618-8.471-18.276-5.744l-157.653 65.91-157.653-65.91c-6.672-2.77-14.389-.363-18.276 5.744-3.873 6.121-2.785 14.142 2.596 18.987l163.382 147.557c2.828 2.553 6.382 3.829 9.95 3.829s7.122-1.276 9.95-3.829l163.382-147.557c5.382-4.845 6.47-12.866 2.598-18.987zm-175.929 135.504-88.943-80.313 83.214 34.783c3.655 1.538 7.804 1.538 11.459 0l83.214-34.783c-.001 0-88.944 80.313-88.944 80.313z"/></svg>