<?xml version="1.0" encoding="UTF-8" standalone="no"?>
<svg
   xmlns:dc="http://purl.org/dc/elements/1.1/"
   xmlns:cc="http://creativecommons.org/ns#"
   xmlns:rdf="http://www.w3.org/1999/02/22-rdf-syntax-ns#"
   xmlns:svg="http://www.w3.org/2000/svg"
   xmlns="http://www.w3.org/2000/svg"
   xmlns:sodipodi="http://sodipodi.sourceforge.net/DTD/sodipodi-0.dtd"
   xmlns:inkscape="http://www.inkscape.org/namespaces/inkscape"
   class="thumb"
   width="1000"
   height="760"
   viewBox="0 0 600 456"
   version="1.1"
   id="svg139"
   sodipodi:docname="blockchain.svg"
   inkscape:version="1.0.2 (e86c870879, 2021-01-15)">
  <metadata
     id="metadata143">
    <rdf:RDF>
      <cc:Work
         rdf:about="">
        <dc:format>image/svg+xml</dc:format>
        <dc:type
           rdf:resource="http://purl.org/dc/dcmitype/StillImage" />
        <dc:title></dc:title>
      </cc:Work>
    </rdf:RDF>
  </metadata>
  <sodipodi:namedview
     pagecolor="#ffffff"
     bordercolor="#666666"
     borderopacity="1"
     objecttolerance="10"
     gridtolerance="10"
     guidetolerance="10"
     inkscape:pageopacity="0"
     inkscape:pageshadow="2"
     inkscape:window-width="1920"
     inkscape:window-height="1043"
     id="namedview141"
     showgrid="false"
     inkscape:zoom="0.504"
     inkscape:cx="747.20526"
     inkscape:cy="340.99026"
     inkscape:window-x="334"
     inkscape:window-y="0"
     inkscape:window-maximized="1"
     inkscape:current-layer="svg139" />
  <defs
     id="defs2" />
  <g
     transform="matrix(0.42597495,0.25600725,-0.15962184,0.26571969,321.2797,184.04019)"
     id="g23">
    <svg
       width="153.41"
       height="378.69"
       viewBox="-5 -5 153.41 378.69"
       version="1.1"
       id="svg21">
      <defs
         id="defs9">
        <linearGradient
           x1="0"
           y1="114.97155"
           x2="229.94312"
           y2="114.97155"
           id="linearGradientSke4dp1so4"
           gradientTransform="scale(0.62367601,1.6033966)"
           gradientUnits="userSpaceOnUse">
          <stop
             offset="0%"
             stop-color="#78c0ff"
             id="stop4" />
          <stop
             offset="100%"
             stop-color="#78c0ff"
             id="stop6" />
        </linearGradient>
      </defs>
      <g
         id="g11" />
      <g
         id="g13" />
      <g
         id="g15" />
      <g
         id="g19">
        <polygon
           points="143.41,184.34 71.7,0 0,184.34 71.7,368.69 "
           fill="url(#linearGradientSke4dp1so4)"
           stroke="none"
           id="polygon17"
           style="fill:url(#linearGradientSke4dp1so4)" />
      </g>
    </svg>
  </g>
  <g
     transform="matrix(0.42597495,0.25600725,-0.15962184,0.26571969,260.0491,219.93399)"
     id="g44">
    <svg
       width="153.41"
       height="378.69"
       viewBox="-5 -5 153.41 378.69"
       version="1.1"
       id="svg42">
      <defs
         id="defs30">
        <linearGradient
           x1="0"
           y1="114.97155"
           x2="229.94312"
           y2="114.97155"
           id="linearGradientSke4dp1soa"
           gradientTransform="scale(0.62367601,1.6033966)"
           gradientUnits="userSpaceOnUse">
          <stop
             offset="0%"
             stop-color="#96ceff"
             id="stop25" />
          <stop
             offset="100%"
             stop-color="#96ceff"
             id="stop27" />
        </linearGradient>
      </defs>
      <g
         id="g32" />
      <g
         id="g34" />
      <g
         id="g36" />
      <g
         id="g40">
        <polygon
           points="143.41,184.34 71.7,0 0,184.34 71.7,368.69 "
           fill="url(#linearGradientSke4dp1soa)"
           stroke="none"
           id="polygon38"
           style="fill:url(#linearGradientSke4dp1soa)" />
      </g>
    </svg>
  </g>
  <g
     transform="matrix(0.42597495,0.25600725,-0.15962184,0.26571969,382.5103,152.36919)"
     id="g65">
    <svg
       width="153.41"
       height="378.69"
       viewBox="-5 -5 153.41 378.69"
       version="1.1"
       id="svg63">
      <defs
         id="defs51">
        <linearGradient
           x1="0"
           y1="114.97155"
           x2="229.94312"
           y2="114.97155"
           id="linearGradientSke4dp1sog"
           gradientTransform="scale(0.62367601,1.6033966)"
           gradientUnits="userSpaceOnUse">
          <stop
             offset="0%"
             stop-color="#4c96d7"
             id="stop46" />
          <stop
             offset="100%"
             stop-color="#4c96d7"
             id="stop48" />
        </linearGradient>
      </defs>
      <g
         id="g53" />
      <g
         id="g55" />
      <g
         id="g57" />
      <g
         id="g61">
        <polygon
           points="143.41,184.34 71.7,0 0,184.34 71.7,368.69 "
           fill="url(#linearGradientSke4dp1sog)"
           stroke="none"
           id="polygon59"
           style="fill:url(#linearGradientSke4dp1sog)" />
      </g>
    </svg>
  </g>
  <g
     transform="matrix(0.42597495,0.25600725,-0.15962184,0.26571969,319.1683,119.64249)"
     id="g86">
    <svg
       width="153.41"
       height="378.69"
       viewBox="-5 -5 153.41 378.69"
       version="1.1"
       id="svg84">
      <defs
         id="defs72">
        <linearGradient
           x1="0"
           y1="114.97155"
           x2="229.94312"
           y2="114.97155"
           id="linearGradientSke4dp1som"
           gradientTransform="scale(0.62367601,1.6033966)"
           gradientUnits="userSpaceOnUse">
          <stop
             offset="0%"
             stop-color="#2f7bbd"
             id="stop67" />
          <stop
             offset="100%"
             stop-color="#2f7bbd"
             id="stop69" />
        </linearGradient>
      </defs>
      <g
         id="g74" />
      <g
         id="g76" />
      <g
         id="g78" />
      <g
         id="g82">
        <polygon
           points="143.41,184.34 71.7,0 0,184.34 71.7,368.69 "
           fill="url(#linearGradientSke4dp1som)"
           stroke="none"
           id="polygon80"
           style="fill:url(#linearGradientSke4dp1som)" />
      </g>
    </svg>
  </g>
  <g
     transform="matrix(2.627954,0,0,2.627954,154.05809,89.718883)"
     id="g105">
    <svg
       width="105.31622"
       height="100.99725"
       viewBox="-2.66 -0.49825 105.31622 100.99725"
       version="1.1"
       id="svg103">
      <defs
         id="defs93">
        <linearGradient
           x1="2.2863705"
           y1="51.173195"
           x2="95.418068"
           y2="51.173195"
           id="linearGradientSke4dp1sos"
           gradientTransform="scale(1.0234562,0.97708139)"
           gradientUnits="userSpaceOnUse">
          <stop
             offset="0%"
             stop-color="#5eb4ff"
             id="stop88" />
          <stop
             offset="100%"
             stop-color="#5eb4ff"
             id="stop90" />
        </linearGradient>
      </defs>
      <g
         id="g95" />
      <g
         id="g97" />
      <g
         id="g101">
        <path
           fill="url(#linearGradientSke4dp1sos)"
           d="M 97.622,30.671 C 97.621,30.667 97.619,30.663 97.618,30.659 97.615,30.647 97.607,30.637 97.603,30.625 97.601,30.618 97.597,30.611 97.594,30.604 97.573,30.544 97.552,30.485 97.52,30.43 97.506,30.406 97.486,30.385 97.469,30.362 97.467,30.359 97.465,30.356 97.462,30.353 97.446,30.331 97.432,30.309 97.413,30.288 97.395,30.267 97.38,30.244 97.36,30.225 97.337,30.202 97.307,30.184 97.281,30.163 97.244,30.133 97.21,30.099 97.168,30.074 97.162,30.071 97.155,30.07 97.149,30.066 97.144,30.063 97.14,30.059 97.135,30.056 L 73.948,17.412 C 73.873,17.357 73.791,17.311 73.703,17.279 L 50.477,4.624 c -0.299,-0.163 -0.659,-0.163 -0.957,0 L 26.193,17.337 c -0.321,0.175 -0.521,0.512 -0.521,0.878 V 43.053 L 2.863,55.48 c -0.033,0.02 -0.06,0.045 -0.09,0.066 -0.027,0.02 -0.055,0.037 -0.08,0.059 -0.088,0.076 -0.164,0.164 -0.22,0.264 -0.003,0.004 -0.007,0.008 -0.01,0.012 -0.006,0.012 -0.006,0.025 -0.012,0.037 -0.045,0.092 -0.074,0.189 -0.09,0.291 -0.005,0.031 -0.01,0.059 -0.012,0.09 -0.002,0.02 -0.009,0.039 -0.009,0.061 v 25.426 c 0,0.367 0.2,0.703 0.521,0.879 l 23.33,12.713 c 0.047,0.025 0.097,0.039 0.146,0.057 0.027,0.01 0.052,0.023 0.079,0.031 0.084,0.021 0.168,0.033 0.253,0.033 v 0 h 0.001 c 0.085,0 0.17,-0.012 0.252,-0.033 0.003,0 0.006,0 0.009,-0.002 0.019,-0.004 0.035,-0.016 0.053,-0.021 0.01,-0.004 0.019,-0.008 0.028,-0.012 0.046,-0.018 0.093,-0.029 0.137,-0.053 L 97.135,57.237 c 0.321,-0.174 0.521,-0.512 0.521,-0.877 V 30.934 c 0.002,-0.09 -0.01,-0.179 -0.034,-0.263 z M 50.998,31.527 72.332,19.899 V 43.053 L 50.998,54.676 Z m 0,25.426 L 72.332,45.33 V 68.476 L 50.998,80.104 Z M 27.672,69.666 48.998,58.043 v 23.15 L 27.672,92.814 Z M 95.658,55.766 74.332,67.387 V 44.24 L 95.658,32.617 Z"
           stroke="none"
           id="path99"
           style="fill:url(#linearGradientSke4dp1sos)" />
      </g>
    </svg>
  </g>
</svg>
