<?xml version="1.0" encoding="UTF-8" standalone="no"?>
<svg
   xmlns:dc="http://purl.org/dc/elements/1.1/"
   xmlns:cc="http://creativecommons.org/ns#"
   xmlns:rdf="http://www.w3.org/1999/02/22-rdf-syntax-ns#"
   xmlns:svg="http://www.w3.org/2000/svg"
   xmlns="http://www.w3.org/2000/svg"
   xmlns:sodipodi="http://sodipodi.sourceforge.net/DTD/sodipodi-0.dtd"
   xmlns:inkscape="http://www.inkscape.org/namespaces/inkscape"
   width="19"
   height="18"
   viewBox="0 0 19 18"
   version="1.1"
   id="svg9"
   sodipodi:docname="account-sets-blue.svg"
   inkscape:version="0.92.4 (unknown)">
  <metadata
     id="metadata15">
    <rdf:RDF>
      <cc:Work
         rdf:about="">
        <dc:format>image/svg+xml</dc:format>
        <dc:type
           rdf:resource="http://purl.org/dc/dcmitype/StillImage" />
        <dc:title>book@1.5x</dc:title>
      </cc:Work>
    </rdf:RDF>
  </metadata>
  <defs
     id="defs13" />
  <sodipodi:namedview
     pagecolor="#ffffff"
     bordercolor="#666666"
     borderopacity="1"
     objecttolerance="10"
     gridtolerance="10"
     guidetolerance="10"
     inkscape:pageopacity="0"
     inkscape:pageshadow="2"
     inkscape:window-width="1397"
     inkscape:window-height="712"
     id="namedview11"
     showgrid="false"
     inkscape:zoom="16.857143"
     inkscape:cx="9.7372881"
     inkscape:cy="7"
     inkscape:window-x="2524"
     inkscape:window-y="231"
     inkscape:window-maximized="0"
     inkscape:current-layer="svg9" />
  <!-- Generator: Sketch 64 (93537) - https://sketch.com -->
  <title
     id="title2">book@1.5x</title>
  <desc
     id="desc4">Created with Sketch.</desc>
  <g
     style="fill:#0091ff;fill-rule:nonzero;stroke:none;stroke-width:1;fill-opacity:1"
     transform="matrix(1,0,0,1.1701146,-1332.0593,-297.08274)"
     id="01---live-transactions">
    <path
       inkscape:connector-curvature="0"
       id="book"
       d="m 1348.8,255.2 h -14.4 c -0.88,0 -1.6,0.72 -1.6,1.6 v 10.4 c 0,0.88 0.72,1.6 1.6,1.6 h 14.4 c 0.88,0 1.6,-0.72 1.6,-1.6 v -10.4 c 0,-0.88 -0.72,-1.6 -1.6,-1.6 z m -14.4,12 v -10.4 h 6.4 v 10.4 z m 14.4,0 h -6.4 v -10.4 h 6.4 z m -5.6,-7.6 h 4.8 v 1.2 h -4.8 z m 0,2 h 4.8 v 1.2 h -4.8 z m 0,2 h 4.8 v 1.2 h -4.8 z"
       style="fill:#0091ff;fill-opacity:1" />
  </g>
</svg>
