<?xml version="1.0" encoding="UTF-8"?>
<svg width="13px" height="18px" viewBox="0 0 13 18" version="1.1" xmlns="http://www.w3.org/2000/svg" xmlns:xlink="http://www.w3.org/1999/xlink">
    <!-- Generator: Sketch 64 (93537) - https://sketch.com -->
    <title>Shape@1.5x</title>
    <desc>Created with Sketch.</desc>
    <g id="wireframes" stroke="none" stroke-width="1" fill="none" fill-rule="evenodd">
        <g id="01---live-transactions" transform="translate(-1200.000000, -252.000000)" fill="#B0BAC2" fill-rule="nonzero">
            <path d="M1211.4,258.4 L1210.6,258.4 L1210.6,256.8 C1210.6,254.592 1208.808,252.8 1206.6,252.8 C1204.392,252.8 1202.6,254.592 1202.6,256.8 L1202.6,258.4 L1201.8,258.4 C1200.92,258.4 1200.2,259.12 1200.2,260 L1200.2,268 C1200.2,268.88 1200.92,269.6 1201.8,269.6 L1211.4,269.6 C1212.28,269.6 1213,268.88 1213,268 L1213,260 C1213,259.12 1212.28,258.4 1211.4,258.4 Z M1204.2,256.8 C1204.2,255.472 1205.272,254.4 1206.6,254.4 C1207.928,254.4 1209,255.472 1209,256.8 L1209,258.4 L1204.2,258.4 L1204.2,256.8 Z M1211.4,268 L1201.8,268 L1201.8,260 L1211.4,260 L1211.4,268 Z M1206.6,265.6 C1207.48,265.6 1208.2,264.88 1208.2,264 C1208.2,263.12 1207.48,262.4 1206.6,262.4 C1205.72,262.4 1205,263.12 1205,264 C1205,264.88 1205.72,265.6 1206.6,265.6 Z" id="Shape"></path>
        </g>
    </g>
</svg>