<?xml version="1.0" encoding="UTF-8" standalone="no"?>
<svg
   xmlns:dc="http://purl.org/dc/elements/1.1/"
   xmlns:cc="http://creativecommons.org/ns#"
   xmlns:rdf="http://www.w3.org/1999/02/22-rdf-syntax-ns#"
   xmlns:svg="http://www.w3.org/2000/svg"
   xmlns="http://www.w3.org/2000/svg"
   xmlns:sodipodi="http://sodipodi.sourceforge.net/DTD/sodipodi-0.dtd"
   xmlns:inkscape="http://www.inkscape.org/namespaces/inkscape"
   width="13px"
   height="18px"
   viewBox="0 0 13 18"
   version="1.1"
   id="svg9"
   sodipodi:docname="escrows-blue.svg"
   inkscape:version="0.92.4 (unknown)">
  <metadata
     id="metadata15">
    <rdf:RDF>
      <cc:Work
         rdf:about="">
        <dc:format>image/svg+xml</dc:format>
        <dc:type
           rdf:resource="http://purl.org/dc/dcmitype/StillImage" />
        <dc:title>Shape@1.5x</dc:title>
      </cc:Work>
    </rdf:RDF>
  </metadata>
  <defs
     id="defs13" />
  <sodipodi:namedview
     pagecolor="#ffffff"
     bordercolor="#666666"
     borderopacity="1"
     objecttolerance="10"
     gridtolerance="10"
     guidetolerance="10"
     inkscape:pageopacity="0"
     inkscape:pageshadow="2"
     inkscape:window-width="848"
     inkscape:window-height="480"
     id="namedview11"
     showgrid="false"
     inkscape:zoom="13.111111"
     inkscape:cx="6.9576271"
     inkscape:cy="8.6949153"
     inkscape:window-x="0"
     inkscape:window-y="0"
     inkscape:window-maximized="0"
     inkscape:current-layer="svg9" />
  <!-- Generator: Sketch 64 (93537) - https://sketch.com -->
  <title
     id="title2">Shape@1.5x</title>
  <desc
     id="desc4">Created with Sketch.</desc>
  <g
     id="g829">
    <g
       id="01---live-transactions"
       transform="translate(-1200,-252)"
       style="fill:#0091ff;fill-opacity:1;fill-rule:nonzero;stroke:none;stroke-width:1">
      <path
         style="fill:#0091ff;fill-opacity:1"
         d="m 1211.4,258.4 h -0.8 v -1.6 c 0,-2.208 -1.792,-4 -4,-4 -2.208,0 -4,1.792 -4,4 v 1.6 h -0.8 c -0.88,0 -1.6,0.72 -1.6,1.6 v 8 c 0,0.88 0.72,1.6 1.6,1.6 h 9.6 c 0.88,0 1.6,-0.72 1.6,-1.6 v -8 c 0,-0.88 -0.72,-1.6 -1.6,-1.6 z m -7.2,-1.6 c 0,-1.328 1.072,-2.4 2.4,-2.4 1.328,0 2.4,1.072 2.4,2.4 v 1.6 h -4.8 z m 7.2,11.2 h -9.6 v -8 h 9.6 z m -4.8,-2.4 c 0.88,0 1.6,-0.72 1.6,-1.6 0,-0.88 -0.72,-1.6 -1.6,-1.6 -0.88,0 -1.6,0.72 -1.6,1.6 0,0.88 0.72,1.6 1.6,1.6 z"
         id="Shape"
         inkscape:connector-curvature="0" />
    </g>
  </g>
</svg>
