<?xml version="1.0" encoding="UTF-8" standalone="no"?>
<svg
   xmlns:dc="http://purl.org/dc/elements/1.1/"
   xmlns:cc="http://creativecommons.org/ns#"
   xmlns:rdf="http://www.w3.org/1999/02/22-rdf-syntax-ns#"
   xmlns:svg="http://www.w3.org/2000/svg"
   xmlns="http://www.w3.org/2000/svg"
   xmlns:sodipodi="http://sodipodi.sourceforge.net/DTD/sodipodi-0.dtd"
   xmlns:inkscape="http://www.inkscape.org/namespaces/inkscape"
   width="16px"
   height="15px"
   viewBox="0 0 16 15"
   version="1.1"
   id="svg11"
   sodipodi:docname="payment-channels-white.svg"
   inkscape:version="0.92.4 (unknown)">
  <metadata
     id="metadata17">
    <rdf:RDF>
      <cc:Work
         rdf:about="">
        <dc:format>image/svg+xml</dc:format>
        <dc:type
           rdf:resource="http://purl.org/dc/dcmitype/StillImage" />
        <dc:title>Group 12@1.5x</dc:title>
      </cc:Work>
    </rdf:RDF>
  </metadata>
  <defs
     id="defs15" />
  <sodipodi:namedview
     pagecolor="#ffffff"
     bordercolor="#666666"
     borderopacity="1"
     objecttolerance="10"
     gridtolerance="10"
     guidetolerance="10"
     inkscape:pageopacity="0"
     inkscape:pageshadow="2"
     inkscape:window-width="1223"
     inkscape:window-height="841"
     id="namedview13"
     showgrid="false"
     inkscape:zoom="15.733333"
     inkscape:cx="8.3813559"
     inkscape:cy="7.5"
     inkscape:window-x="0"
     inkscape:window-y="0"
     inkscape:window-maximized="0"
     inkscape:current-layer="svg11" />
  <!-- Generator: Sketch 64 (93537) - https://sketch.com -->
  <title
     id="title2">Group 12@1.5x</title>
  <desc
     id="desc4">Created with Sketch.</desc>
  <g
     style="fill:#ffffff;fill-rule:nonzero;stroke:none;stroke-width:1;fill-opacity:1"
     transform="translate(-1274,-254)"
     id="01---live-transactions">
    <g
       transform="translate(1274.4,254.4)"
       id="Group-12"
       style="fill:#ffffff;fill-opacity:1">
      <path
         inkscape:connector-curvature="0"
         id="Shape"
         d="M 14.4,3.424 V 1.6 C 14.4,0.72 13.68,0 12.8,0 H 1.6 C 0.712,0 0,0.72 0,1.6 v 11.2 c 0,0.88 0.712,1.6 1.6,1.6 h 11.2 c 0.88,0 1.6,-0.72 1.6,-1.6 v -1.824 c 0.472,-0.28 0.8,-0.784 0.8,-1.376 V 4.8 C 15.2,4.208 14.872,3.704 14.4,3.424 Z M 13.6,4.8 V 9.6 H 8 V 4.8 Z m -12,8 V 1.6 H 12.8 V 3.2 H 8 C 7.12,3.2 6.4,3.92 6.4,4.8 v 4.8 c 0,0.88 0.72,1.6 1.6,1.6 h 4.8 v 1.6 z"
         style="fill:#ffffff;fill-opacity:1" />
      <circle
         r="1.2"
         cy="7.1999998"
         cx="10.4"
         id="Oval"
         style="fill:#ffffff;fill-opacity:1" />
    </g>
  </g>
</svg>
