<?xml version="1.0" encoding="UTF-8"?>
<svg width="16px" height="15px" viewBox="0 0 16 15" version="1.1" xmlns="http://www.w3.org/2000/svg" xmlns:xlink="http://www.w3.org/1999/xlink">
    <!-- Generator: Sketch 64 (93537) - https://sketch.com -->
    <title>Group 12@1.5x</title>
    <desc>Created with Sketch.</desc>
    <g id="wireframes" stroke="none" stroke-width="1" fill="none" fill-rule="evenodd">
        <g id="01---live-transactions" transform="translate(-1274.000000, -254.000000)" fill="#B0BAC2" fill-rule="nonzero">
            <g id="Group-12" transform="translate(1274.400000, 254.400000)">
                <path d="M14.4,3.424 L14.4,1.6 C14.4,0.72 13.68,-1.82076576e-13 12.8,-1.82076576e-13 L1.6,-1.82076576e-13 C0.712,-1.82076576e-13 -9.05941988e-14,0.72 -9.05941988e-14,1.6 L-9.05941988e-14,12.8 C-9.05941988e-14,13.68 0.712,14.4 1.6,14.4 L12.8,14.4 C13.68,14.4 14.4,13.68 14.4,12.8 L14.4,10.976 C14.872,10.696 15.2,10.192 15.2,9.6 L15.2,4.8 C15.2,4.208 14.872,3.704 14.4,3.424 Z M13.6,4.8 L13.6,9.6 L8,9.6 L8,4.8 L13.6,4.8 Z M1.6,12.8 L1.6,1.6 L12.8,1.6 L12.8,3.2 L8,3.2 C7.12,3.2 6.4,3.92 6.4,4.8 L6.4,9.6 C6.4,10.48 7.12,11.2 8,11.2 L12.8,11.2 L12.8,12.8 L1.6,12.8 Z" id="Shape"></path>
                <circle id="Oval" cx="10.4" cy="7.2" r="1.2"></circle>
            </g>
        </g>
    </g>
</svg>