<?xml version="1.0" encoding="UTF-8" standalone="no"?>
<svg
   xmlns:dc="http://purl.org/dc/elements/1.1/"
   xmlns:cc="http://creativecommons.org/ns#"
   xmlns:rdf="http://www.w3.org/1999/02/22-rdf-syntax-ns#"
   xmlns:svg="http://www.w3.org/2000/svg"
   xmlns="http://www.w3.org/2000/svg"
   xmlns:sodipodi="http://sodipodi.sourceforge.net/DTD/sodipodi-0.dtd"
   xmlns:inkscape="http://www.inkscape.org/namespaces/inkscape"
   width="14px"
   height="16px"
   viewBox="0 0 14 16"
   version="1.1"
   id="svg10"
   sodipodi:docname="trustlines-blue.svg"
   inkscape:version="0.92.4 (unknown)">
  <metadata
     id="metadata16">
    <rdf:RDF>
      <cc:Work
         rdf:about="">
        <dc:format>image/svg+xml</dc:format>
        <dc:type
           rdf:resource="http://purl.org/dc/dcmitype/StillImage" />
        <dc:title>trustlines@1.5x</dc:title>
      </cc:Work>
    </rdf:RDF>
  </metadata>
  <defs
     id="defs14" />
  <sodipodi:namedview
     pagecolor="#ffffff"
     bordercolor="#666666"
     borderopacity="1"
     objecttolerance="10"
     gridtolerance="10"
     guidetolerance="10"
     inkscape:pageopacity="0"
     inkscape:pageshadow="2"
     inkscape:window-width="848"
     inkscape:window-height="480"
     id="namedview12"
     showgrid="false"
     inkscape:zoom="14.75"
     inkscape:cx="7.2711864"
     inkscape:cy="8"
     inkscape:window-x="0"
     inkscape:window-y="0"
     inkscape:window-maximized="0"
     inkscape:current-layer="svg10" />
  <!-- Generator: Sketch 64 (93537) - https://sketch.com -->
  <title
     id="title2">trustlines@1.5x</title>
  <desc
     id="desc4">Created with Sketch.</desc>
  <g
     id="g829">
    <g
       id="01---live-transactions"
       transform="translate(-846,-254)"
       style="fill:#0091ff;fill-opacity:1;fill-rule:nonzero;stroke:#0091ff;stroke-width:0.80000001;stroke-opacity:1">
      <g
         style="fill:#0091ff;fill-opacity:1;stroke:#0091ff;stroke-opacity:1"
         id="shield-(1)"
         transform="translate(847,255)">
        <path
           style="fill:#0091ff;fill-opacity:1;stroke:#0091ff;stroke-opacity:1"
           d="M 10.610549,1.7825937 C 9.2511433,1.5449219 7.9992526,0.82064062 7.3740079,0.41007422 6.9654744,0.14180469 6.4903748,0 6.000028,0 5.5096813,0 5.0345536,0.14180469 4.6260481,0.41004687 4.0008035,0.82061328 2.7489128,1.5449219 1.3895073,1.7825937 0.58438009,1.9233594 0,2.6029609 0,3.3985273 V 6.6991914 C 0,7.7895781 0.31270641,8.8524844 0.92937456,9.8584609 1.4118455,10.645441 2.0803091,11.397586 2.9162108,12.094004 4.321722,13.265 5.7134996,13.875613 5.7720217,13.901043 L 6,14 6.2279783,13.901043 C 6.2865284,13.875641 7.678278,13.265 9.0837892,12.094004 9.9196629,11.397586 10.588183,10.645441 11.070625,9.8584609 11.68735,8.8525117 12,7.7895781 12,6.6991914 V 3.3985547 C 12,2.6029609 11.415676,1.9233594 10.610549,1.7825937 Z m 0.268002,4.916625 c 0,1.625586 -0.84176,3.1547852 -2.5019598,4.5451873 -0.965054,0.808227 -1.9448506,1.335031 -2.3765071,1.548832 C 5.0078431,12.301379 1.1215053,10.1535 1.1215053,6.6992187 v -3.300664 c 0,-0.2650977 0.1959145,-0.4917774 0.4658504,-0.5389727 C 3.1490099,2.5865547 4.5539045,1.776332 5.2523018,1.3177227 5.4750389,1.1714336 5.7335956,1.0941055 6.000028,1.0941055 c 0.2664325,0 0.5250172,0.077328 0.7477263,0.2235898 C 7.4461796,1.776332 8.8510461,2.5865 10.4127,2.8595273 c 0.269908,0.047195 0.465851,0.273875 0.465851,0.5389727 z"
           id="trustlines"
           inkscape:connector-curvature="0" />
      </g>
    </g>
  </g>
</svg>
