<?xml version="1.0" encoding="UTF-8"?>
<svg width="14px" height="16px" viewBox="0 0 14 16" version="1.1" xmlns="http://www.w3.org/2000/svg" xmlns:xlink="http://www.w3.org/1999/xlink">
    <!-- Generator: Sketch 64 (93537) - https://sketch.com -->
    <title>trustlines@1.5x</title>
    <desc>Created with Sketch.</desc>
    <g id="wireframes" stroke="none" stroke-width="1" fill="none" fill-rule="evenodd">
        <g id="01---live-transactions" transform="translate(-846.000000, -254.000000)" fill="#B0BAC2" fill-rule="nonzero" stroke="#B0BAC2" stroke-width="0.8">
            <g id="shield-(1)" transform="translate(847.000000, 255.000000)">
                <path d="M10.6105487,1.78259375 C9.2511433,1.54492187 7.99925259,0.820640625 7.37400793,0.410074219 C6.96547439,0.141804687 6.49037478,0 6.00002803,0 C5.50968128,0 5.03455363,0.141804687 4.62604812,0.410046875 C4.00080346,0.820613281 2.74891275,1.54492188 1.38950732,1.78259375 C0.584380095,1.92335937 0,2.60296094 0,3.39852734 L0,6.69919141 C0,7.78957812 0.312706413,8.85248437 0.929374559,9.85846094 C1.41184549,10.6454414 2.08030905,11.3975859 2.91621083,12.0940039 C4.32172203,13.265 5.7134996,13.8756133 5.77202169,13.901043 L6,14 L6.22797831,13.901043 C6.28652843,13.8756406 7.67827797,13.265 9.08378917,12.0940039 C9.91966292,11.3975859 10.5881825,10.6454414 11.0706254,9.85846094 C11.6873496,8.85251172 12,7.78957812 12,6.69919141 L12,3.39855469 C12,2.60296094 11.415676,1.92335937 10.6105487,1.78259375 Z M10.8785508,6.69921875 C10.8785508,8.32480469 10.0367912,9.85400391 8.37659116,11.2444063 C7.41153719,12.0526328 6.43174057,12.5794375 6.00008408,12.7932383 C5.00784312,12.3013789 1.12150528,10.1535 1.12150528,6.69921875 L1.12150528,3.39855469 C1.12150528,3.13345703 1.31741976,2.90677734 1.58735572,2.85958203 C3.14900992,2.58655469 4.55390451,1.77633203 5.25230178,1.31772266 C5.47503889,1.17143359 5.73359555,1.09410547 6.00002803,1.09410547 C6.26646051,1.09410547 6.52504519,1.17143359 6.74775427,1.31769531 C7.44617957,1.77633203 8.85104614,2.5865 10.4127003,2.85952734 C10.6826083,2.90672266 10.8785508,3.13340234 10.8785508,3.3985 L10.8785508,6.69921875 Z" id="trustlines"></path>
            </g>
        </g>
    </g>
</svg>