<?xml version="1.0" encoding="UTF-8"?>
<svg width="97px" height="97px" viewBox="0 0 97 97" version="1.1" xmlns="http://www.w3.org/2000/svg" xmlns:xlink="http://www.w3.org/1999/xlink">
    <!-- Generator: Sketch 64 (93537) - https://sketch.com -->
    <title>green_alert@1.5x</title>
    <desc>Created with Sketch.</desc>
    <g id="wireframes" stroke="none" stroke-width="1" fill="none" fill-rule="evenodd">
        <g id="03-1---Filter-result-emtpy" transform="translate(-811.000000, -290.000000)">
            <g id="Group-4" transform="translate(316.000000, 148.000000)">
                <g id="Row" transform="translate(178.000000, 142.000000)">
                    <g id="green_alert" transform="translate(317.000000, 0.000000)">
                        <circle id="Oval" fill="#16BE59" opacity="0.200000003" cx="48.5" cy="48.5" r="48.5"></circle>
                        <g id="Group-5" transform="translate(18.000000, 18.000000)">
                            <circle id="Oval" fill="#16BE59" cx="30.5" cy="30.5" r="30.5"></circle>
                            <path d="M42.1747606,40.1852832 L40.3261944,37.1039526 C39.4724393,35.6817341 39.0213122,34.052751 39.0213122,32.3947493 L39.0213122,29.6956075 C39.0213122,26.2880564 36.7474582,23.4059202 33.6381183,22.476767 L33.6381183,20.5442232 C33.6381183,19.3566775 32.6723763,18.3909356 31.4848306,18.3909356 C30.2972849,18.3909356 29.331543,19.3566775 29.331543,20.5442232 L29.331543,22.476767 C26.2222535,23.4059202 23.9483995,26.2880564 23.9483995,29.6956075 L23.9483995,32.3947493 C23.9483995,34.052751 23.4972724,35.6806238 22.6445772,37.1028928 L20.796011,40.1842234 C20.6958839,40.3511187 20.6937138,40.5578327 20.7895512,40.7268477 C20.8853886,40.8958626 21.0630334,41.0003299 21.2568278,41.0003299 L41.712884,41.0003299 C41.9066783,41.0003299 42.085383,40.8959131 42.1812204,40.7279579 C42.2770577,40.5599523 42.2738278,40.3510682 42.1747606,40.1852832 Z" id="Path" fill="#FFFFFF" fill-rule="nonzero" transform="translate(31.485192, 29.695633) rotate(22.000000) translate(-31.485192, -29.695633) "></path>
                            <path d="M23.0531423,41.0968191 C23.6603647,42.3651124 24.9458674,43.2501067 26.4434336,43.2501067 C27.9409998,43.2501067 29.226553,42.3651124 29.8337754,41.0968191 L23.0531423,41.0968191 L23.0531423,41.0968191 Z" id="Path" fill="#FFFFFF" fill-rule="nonzero" transform="translate(26.443459, 42.173463) rotate(22.000000) translate(-26.443459, -42.173463) "></path>
                        </g>
                    </g>
                </g>
            </g>
        </g>
    </g>
</svg>