<?xml version="1.0" encoding="UTF-8"?>
<svg width="13px" height="15px" viewBox="0 0 13 15" version="1.1" xmlns="http://www.w3.org/2000/svg" xmlns:xlink="http://www.w3.org/1999/xlink">
    <!-- Generator: Sketch 64 (93537) - https://sketch.com -->
    <title>bell (1)@1.5x</title>
    <desc>Created with Sketch.</desc>
    <g id="wireframes" stroke="none" stroke-width="1" fill="none" fill-rule="evenodd">
        <g id="02-2---Filter-almost-set-" transform="translate(-715.000000, -580.000000)" fill="#FFFFFF" fill-rule="nonzero">
            <g id="Group-12" transform="translate(404.000000, 89.000000)">
                <g id="+-Add-Record-btn" transform="translate(282.000000, 479.000000)">
                    <g id="bell-(1)" transform="translate(37.023548, 18.852414) rotate(22.000000) translate(-37.023548, -18.852414) translate(30.523548, 10.852414)">
                        <path d="M12.9377102,13.4976977 L11.8422636,11.6717241 C11.3363347,10.8289279 11.0690002,9.86360466 11.0690002,8.88108515 L11.0690002,7.28159375 C11.0690002,5.26230427 9.72153115,3.55437177 7.87895941,3.00376248 L7.87895941,1.85855141 C7.87895941,1.15482065 7.30666789,0.582529129 6.60293713,0.582529129 C5.89920637,0.582529129 5.32691485,1.15482065 5.32691485,1.85855141 L5.32691485,3.00376248 C3.48437302,3.55437177 2.13690402,5.26230427 2.13690402,7.28159375 L2.13690402,8.88108515 C2.13690402,9.86360466 1.86956947,10.82827 1.3642686,11.671096 L0.268821999,13.4970696 C0.209487427,13.5959706 0.208201446,13.7184677 0.264993962,13.8186247 C0.321786479,13.9187817 0.427057494,13.9806883 0.541898602,13.9806883 L12.6640056,13.9806883 C12.7788467,13.9806883 12.8847457,13.9188117 12.9415382,13.8192827 C12.9983308,13.7197238 12.9964167,13.5959407 12.9377102,13.4976977 Z" id="Path"></path>
                        <path d="M4.59387569,14.6186546 C4.95371116,15.3702358 5.71549051,15.8946768 6.60293713,15.8946768 C7.49038376,15.8946768 8.25219301,15.3702358 8.61202848,14.6186546 L4.59387569,14.6186546 L4.59387569,14.6186546 Z" id="Path"></path>
                    </g>
                </g>
            </g>
        </g>
    </g>
</svg>