<?xml version="1.0" encoding="UTF-8"?>
<svg width="16px" height="16px" viewBox="0 0 16 16" version="1.1" xmlns="http://www.w3.org/2000/svg" xmlns:xlink="http://www.w3.org/1999/xlink">
    <!-- Generator: Sketch 64 (93537) - https://sketch.com -->
    <title>settings@1.5x</title>
    <desc>Created with Sketch.</desc>
    <g id="wireframes" stroke="none" stroke-width="1" fill="none" fill-rule="evenodd">
        <g id="02---filter-by-category-" transform="translate(-676.000000, -722.000000)" fill="#FFFFFF" fill-rule="nonzero">
            <g id="Group-12" transform="translate(404.000000, 59.000000)">
                <g id="+-Add-Record-btn" transform="translate(242.000000, 651.000000)">
                    <path d="M43.7316669,20.7833333 C43.7650003,20.5333333 43.7816669,20.275 43.7816669,20 C43.7816669,19.7333333 43.7650003,19.4666667 43.7233336,19.2166667 L45.4150003,17.9 C45.5650003,17.7833333 45.6066669,17.5583333 45.5150003,17.3916667 L43.9150003,14.625 C43.8150003,14.4416667 43.6066669,14.3833333 43.4233336,14.4416667 L41.4316669,15.2416667 C41.0150003,14.925 40.5733336,14.6583333 40.0816669,14.4583333 L39.7816669,12.3416667 C39.7483336,12.1416667 39.5816669,12 39.3816669,12 L36.1816669,12 C35.9816669,12 35.8233336,12.1416667 35.7900003,12.3416667 L35.4900003,14.4583333 C34.9983336,14.6583333 34.5483336,14.9333333 34.1400003,15.2416667 L32.1483336,14.4416667 C31.9650003,14.375 31.7566669,14.4416667 31.6566669,14.625 L30.0650003,17.3916667 C29.9650003,17.5666667 29.9983336,17.7833333 30.1650003,17.9 L31.8566669,19.2166667 C31.8150003,19.4666667 31.7816669,19.7416667 31.7816669,20 C31.7816669,20.2583333 31.7983336,20.5333333 31.8400003,20.7833333 L30.1483336,22.1 C29.9983336,22.2166667 29.9566669,22.4416667 30.0483336,22.6083333 L31.6483336,25.375 C31.7483336,25.5583333 31.9566669,25.6166667 32.1400003,25.5583333 L34.1316669,24.7583333 C34.5483336,25.075 34.9900003,25.3416667 35.4816669,25.5416667 L35.7816669,27.6583333 C35.8233336,27.8583333 35.9816669,28 36.1816669,28 L39.3816669,28 C39.5816669,28 39.7483336,27.8583333 39.7733336,27.6583333 L40.0733336,25.5416667 C40.5650003,25.3416667 41.0150003,25.075 41.4233336,24.7583333 L43.4150003,25.5583333 C43.5983336,25.625 43.8066669,25.5583333 43.9066669,25.375 L45.5066669,22.6083333 C45.6066669,22.425 45.5650003,22.2166667 45.4066669,22.1 L43.7316669,20.7833333 Z M37.7816669,23 C36.1316669,23 34.7816669,21.65 34.7816669,20 C34.7816669,18.35 36.1316669,17 37.7816669,17 C39.4316669,17 40.7816669,18.35 40.7816669,20 C40.7816669,21.65 39.4316669,23 37.7816669,23 Z" id="settings"></path>
                </g>
            </g>
        </g>
    </g>
</svg>