<?xml version="1.0" encoding="UTF-8" standalone="no"?>
<svg
   xmlns:dc="http://purl.org/dc/elements/1.1/"
   xmlns:cc="http://creativecommons.org/ns#"
   xmlns:rdf="http://www.w3.org/1999/02/22-rdf-syntax-ns#"
   xmlns:svg="http://www.w3.org/2000/svg"
   xmlns="http://www.w3.org/2000/svg"
   xmlns:sodipodi="http://sodipodi.sourceforge.net/DTD/sodipodi-0.dtd"
   xmlns:inkscape="http://www.inkscape.org/namespaces/inkscape"
   width="16px"
   height="16px"
   viewBox="0 0 16 16"
   version="1.1"
   id="svg11"
   sodipodi:docname="gear-gray.svg"
   inkscape:version="0.92.4 (unknown)">
  <metadata
     id="metadata17">
    <rdf:RDF>
      <cc:Work
         rdf:about="">
        <dc:format>image/svg+xml</dc:format>
        <dc:type
           rdf:resource="http://purl.org/dc/dcmitype/StillImage" />
        <dc:title>settings@1.5x</dc:title>
      </cc:Work>
    </rdf:RDF>
  </metadata>
  <defs
     id="defs15" />
  <sodipodi:namedview
     pagecolor="#ffffff"
     bordercolor="#666666"
     borderopacity="1"
     objecttolerance="10"
     gridtolerance="10"
     guidetolerance="10"
     inkscape:pageopacity="0"
     inkscape:pageshadow="2"
     inkscape:window-width="1920"
     inkscape:window-height="1016"
     id="namedview13"
     showgrid="false"
     inkscape:zoom="14.75"
     inkscape:cx="-5.3559322"
     inkscape:cy="7.4576272"
     inkscape:window-x="1920"
     inkscape:window-y="27"
     inkscape:window-maximized="1"
     inkscape:current-layer="svg11" />
  <!-- Generator: Sketch 64 (93537) - https://sketch.com -->
  <title
     id="title2">settings@1.5x</title>
  <desc
     id="desc4">Created with Sketch.</desc>
  <g
     style="fill:#abb4bf;fill-opacity:1;fill-rule:nonzero;stroke:none;stroke-width:1"
     transform="translate(-675.79661,-722)"
     id="02---filter-by-category-">
    <g
       transform="translate(404,59)"
       id="Group-12"
       style="fill:#abb4bf;fill-opacity:1">
      <g
         transform="translate(242,651)"
         id="+-Add-Record-btn"
         style="fill:#abb4bf;fill-opacity:1">
        <path
           inkscape:connector-curvature="0"
           id="settings"
           d="m 43.731667,20.783333 c 0.03333,-0.25 0.05,-0.508333 0.05,-0.783333 0,-0.266667 -0.01667,-0.533333 -0.05833,-0.783333 L 45.415,17.9 c 0.15,-0.116667 0.191667,-0.341667 0.1,-0.508333 L 43.915,14.625 c -0.1,-0.183333 -0.308333,-0.241667 -0.491666,-0.183333 l -1.991667,0.8 C 41.015,14.925 40.573334,14.658333 40.081667,14.458333 l -0.3,-2.116666 c -0.03333,-0.2 -0.2,-0.341667 -0.4,-0.341667 h -3.2 c -0.2,0 -0.358333,0.141667 -0.391667,0.341667 l -0.3,2.116666 c -0.491666,0.2 -0.941666,0.475 -1.35,0.783334 l -1.991666,-0.8 c -0.183334,-0.06667 -0.391667,0 -0.491667,0.183333 L 30.065,17.391667 c -0.1,0.175 -0.06667,0.391666 0.1,0.508333 l 1.691667,1.316667 c -0.04167,0.25 -0.075,0.525 -0.075,0.783333 0,0.258333 0.01667,0.533333 0.05833,0.783333 L 30.148334,22.1 c -0.15,0.116667 -0.191667,0.341667 -0.1,0.508333 l 1.6,2.766667 c 0.1,0.183333 0.308333,0.241667 0.491666,0.183333 l 1.991667,-0.8 c 0.416667,0.316667 0.858333,0.583334 1.35,0.783334 l 0.3,2.116666 c 0.04167,0.2 0.2,0.341667 0.4,0.341667 h 3.2 c 0.2,0 0.366667,-0.141667 0.391667,-0.341667 l 0.3,-2.116666 c 0.491666,-0.2 0.941666,-0.466667 1.35,-0.783334 l 1.991666,0.8 c 0.183334,0.06667 0.391667,0 0.491667,-0.183333 l 1.6,-2.766667 c 0.1,-0.183333 0.05833,-0.391666 -0.1,-0.508333 z M 37.781667,23 c -1.65,0 -3,-1.35 -3,-3 0,-1.65 1.35,-3 3,-3 1.65,0 3,1.35 3,3 0,1.65 -1.35,3 -3,3 z"
           style="fill:#abb4bf;fill-opacity:1" />
      </g>
    </g>
  </g>
</svg>
