<?xml version="1.0" encoding="UTF-8" standalone="no"?>
<svg
   xmlns:dc="http://purl.org/dc/elements/1.1/"
   xmlns:cc="http://creativecommons.org/ns#"
   xmlns:rdf="http://www.w3.org/1999/02/22-rdf-syntax-ns#"
   xmlns:svg="http://www.w3.org/2000/svg"
   xmlns="http://www.w3.org/2000/svg"
   xmlns:sodipodi="http://sodipodi.sourceforge.net/DTD/sodipodi-0.dtd"
   xmlns:inkscape="http://www.inkscape.org/namespaces/inkscape"
   width="21px"
   height="18px"
   viewBox="0 0 21 18"
   version="1.1"
   id="svg12"
   sodipodi:docname="repeat.svg"
   inkscape:version="0.92.4 (unknown)">
  <metadata
     id="metadata18">
    <rdf:RDF>
      <cc:Work
         rdf:about="">
        <dc:format>image/svg+xml</dc:format>
        <dc:type
           rdf:resource="http://purl.org/dc/dcmitype/StillImage" />
        <dc:title>filter_list-24px@1.5x</dc:title>
      </cc:Work>
    </rdf:RDF>
  </metadata>
  <defs
     id="defs16" />
  <sodipodi:namedview
     pagecolor="#ffffff"
     bordercolor="#666666"
     borderopacity="1"
     objecttolerance="10"
     gridtolerance="10"
     guidetolerance="10"
     inkscape:pageopacity="0"
     inkscape:pageshadow="2"
     inkscape:window-width="1432"
     inkscape:window-height="997"
     id="namedview14"
     showgrid="false"
     inkscape:zoom="26.222222"
     inkscape:cx="10.357154"
     inkscape:cy="8.4228978"
     inkscape:window-x="0"
     inkscape:window-y="0"
     inkscape:window-maximized="0"
     inkscape:current-layer="svg12" />
  <!-- Generator: Sketch 64 (93537) - https://sketch.com -->
  <title
     id="title2">filter_list-24px@1.5x</title>
  <desc
     id="desc4">Created with Sketch.</desc>
  <g
     style="fill:#ffffff;fill-opacity:1;fill-rule:nonzero;stroke:none;stroke-width:1"
     transform="matrix(0.92372881,0,0,1,-324.22881,-178)"
     id="03-33---Filter-result-test-2">
    <g
       transform="translate(320,147)"
       id="Group-4"
       style="fill:#ffffff;fill-opacity:1">
      <g
         transform="translate(19,15)"
         id="Group-5"
         style="fill:#ffffff;fill-opacity:1">
        <g
           transform="translate(12,16)"
           id="filter_list-24px"
           style="fill:#ffffff;fill-opacity:1">
          <path
             inkscape:connector-curvature="0"
             id="Shape"
             d="M 12,0 C 7.03,0 3,4.03 3,9 H 0 L 3.89,12.89 3.96,13.03 8,9 H 5 c 0,-3.87 3.13,-7 7,-7 3.87,0 7,3.13 7,7 0,3.87 -3.13,7 -7,7 -1.93,0 -3.68,-0.79 -4.94,-2.06 L 5.64,15.36 C 7.27,16.99 9.51,18 12,18 16.97,18 21,13.97 21,9 21,4.03 16.97,0 12,0 Z m -1,5 v 5 L 15.28,12.54 16,11.33 12.5,9.25 V 5 Z"
             style="fill:#ffffff;fill-opacity:1" />
        </g>
      </g>
    </g>
  </g>
</svg>
