<?xml version="1.0" encoding="UTF-8"?>
<svg width="16px" height="17px" viewBox="0 0 16 17" version="1.1" xmlns="http://www.w3.org/2000/svg" xmlns:xlink="http://www.w3.org/1999/xlink">
    <!-- Generator: Sketch 64 (93537) - https://sketch.com -->
    <title>Search@1.5x</title>
    <desc>Created with Sketch.</desc>
    <g id="wireframes" stroke="none" stroke-width="1" fill="none" fill-rule="evenodd">
        <g id="open-filter" transform="translate(-63.000000, -589.000000)" fill="#7F7F7F" fill-rule="nonzero">
            <g id="Group-15" transform="translate(40.000000, 561.000000)">
                <path d="M38.756,42.8248571 L34.8822857,38.796 C35.8782857,37.612 36.424,36.1222857 36.424,34.5714286 C36.424,30.948 33.476,28 29.8525714,28 C26.2291429,28 23.2811429,30.948 23.2811429,34.5714286 C23.2811429,38.1948571 26.2291429,41.1428571 29.8525714,41.1428571 C31.2128571,41.1428571 32.5091429,40.7325714 33.6174286,39.9537143 L37.5205714,44.0131429 C37.6837143,44.1825714 37.9031429,44.276 38.1382857,44.276 C38.3608571,44.276 38.572,44.1911429 38.7322857,44.0368571 C39.0728571,43.7091429 39.0837143,43.1657143 38.756,42.8248571 Z M29.8525714,29.7142857 C32.5308571,29.7142857 34.7097143,31.8931429 34.7097143,34.5714286 C34.7097143,37.2497143 32.5308571,39.4285714 29.8525714,39.4285714 C27.1742857,39.4285714 24.9954286,37.2497143 24.9954286,34.5714286 C24.9954286,31.8931429 27.1742857,29.7142857 29.8525714,29.7142857 Z" id="Search"></path>
            </g>
        </g>
    </g>
</svg>