<?xml version="1.0" encoding="UTF-8" standalone="no"?>
<svg
   xmlns:dc="http://purl.org/dc/elements/1.1/"
   xmlns:cc="http://creativecommons.org/ns#"
   xmlns:rdf="http://www.w3.org/1999/02/22-rdf-syntax-ns#"
   xmlns:svg="http://www.w3.org/2000/svg"
   xmlns="http://www.w3.org/2000/svg"
   xmlns:sodipodi="http://sodipodi.sourceforge.net/DTD/sodipodi-0.dtd"
   xmlns:inkscape="http://www.inkscape.org/namespaces/inkscape"
   height="16"
   viewBox="-40 0 16 16"
   width="16"
   version="1.1"
   id="svg10"
   sodipodi:docname="trash-white.svg"
   inkscape:version="0.92.4 (unknown)">
  <metadata
     id="metadata16">
    <rdf:RDF>
      <cc:Work
         rdf:about="">
        <dc:format>image/svg+xml</dc:format>
        <dc:type
           rdf:resource="http://purl.org/dc/dcmitype/StillImage" />
        <dc:title></dc:title>
      </cc:Work>
    </rdf:RDF>
  </metadata>
  <defs
     id="defs14" />
  <sodipodi:namedview
     pagecolor="#ffffff"
     bordercolor="#666666"
     borderopacity="1"
     objecttolerance="10"
     gridtolerance="10"
     guidetolerance="10"
     inkscape:pageopacity="0"
     inkscape:pageshadow="2"
     inkscape:window-width="1920"
     inkscape:window-height="1043"
     id="namedview12"
     showgrid="false"
     inkscape:zoom="18.75903"
     inkscape:cx="-5.2797755"
     inkscape:cy="13.450943"
     inkscape:window-x="0"
     inkscape:window-y="0"
     inkscape:window-maximized="0"
     inkscape:current-layer="svg10"
     units="px" />
  <path
     d="m -29.524299,5.9089045 c -0.219078,0 -0.396636,0.1654486 -0.396636,0.369589 v 6.9852075 c 0,0.203996 0.177558,0.369589 0.396636,0.369589 0.219081,0 0.396638,-0.165593 0.396638,-0.369589 V 6.2784935 c 0,-0.2041404 -0.177557,-0.369589 -0.396638,-0.369589 z m 0,0"
     id="path2"
     inkscape:connector-curvature="0"
     style="fill:#ffffff;fill-opacity:1;stroke-width:0.03828736" />
  <path
     d="m -34.204614,5.9089045 c -0.21908,0 -0.396638,0.1654486 -0.396638,0.369589 v 6.9852075 c 0,0.203996 0.177558,0.369589 0.396638,0.369589 0.219079,0 0.396636,-0.165593 0.396636,-0.369589 V 6.2784935 c 0,-0.2041404 -0.177557,-0.369589 -0.396636,-0.369589 z m 0,0"
     id="path4"
     inkscape:connector-curvature="0"
     style="fill:#ffffff;fill-opacity:1;stroke-width:0.03828736" />
  <path
     d="m -37.128149,4.8895054 v 9.1058666 c 0,0.53821 0.191086,1.043652 0.524887,1.40631 0.332265,0.363668 0.794666,0.570118 1.278595,0.570983 h 6.770528 c 0.484067,-8.3e-4 0.946471,-0.207315 1.278595,-0.570983 0.333801,-0.362658 0.524884,-0.8681 0.524884,-1.40631 V 4.8895054 c 0.663551,-0.1819062 1.093522,-0.8439885 1.004761,-1.5472151 -0.0889,-0.7030829 -0.668862,-1.2290247 -1.355474,-1.2291682 h -1.832138 v -0.461985 c 0.0021,-0.3885005 -0.146631,-0.76155329 -0.412918,-1.03600071 -0.266287,-0.27430308 -0.628044,-0.42704677 -1.004202,-0.42387126 h -3.177545 c -0.376158,-0.003145 -0.737915,0.14956818 -1.004201,0.42387126 -0.266287,0.27444742 -0.415016,0.64750021 -0.41292,1.03600071 v 0.461985 h -1.832135 c -0.686615,1.475e-4 -1.266574,0.5260853 -1.355475,1.2291682 -0.08876,0.7032266 0.34121,1.3653089 1.004758,1.5472151 z m 8.57401,10.3439846 h -6.770528 c -0.611831,0 -1.087791,-0.542833 -1.087791,-1.238118 V 4.9219886 h 8.946109 v 9.0733834 c 0,0.695285 -0.47596,1.238118 -1.08779,1.238118 z M -34.229608,1.6511371 c -0.0024,-0.1924463 0.07086,-0.3776729 0.203105,-0.5135246 0.132101,-0.1358521 0.311855,-0.21049261 0.498327,-0.20717173 h 3.177545 c 0.18647,-0.003324 0.366233,0.071325 0.498328,0.20717173 0.132235,0.1357074 0.20548,0.3210783 0.203104,0.5135246 v 0.461985 h -4.580409 z m -2.547824,1.2011605 h 9.676059 c 0.355743,0 0.644118,0.297836 0.644118,0.665258 0,0.3674221 -0.288375,0.6652574 -0.644118,0.6652574 h -9.676059 c -0.355748,0 -0.644119,-0.2978353 -0.644119,-0.6652574 0,-0.367422 0.288371,-0.665258 0.644119,-0.665258 z m 0,0"
     id="path6"
     inkscape:connector-curvature="0"
     style="fill:#ffffff;fill-opacity:1;stroke-width:0.03636687" />
  <path
     d="m -31.939403,5.9089045 c -0.197653,0 -0.357845,0.1654486 -0.357845,0.369589 v 6.9852075 c 0,0.203996 0.160192,0.369589 0.357845,0.369589 0.197653,0 0.357845,-0.165593 0.357845,-0.369589 V 6.2784935 c 0,-0.2041404 -0.160192,-0.369589 -0.357845,-0.369589 z m 0,0"
     id="path8"
     inkscape:connector-curvature="0"
     style="fill:#ffffff;fill-opacity:1;stroke-width:0.03636687" />
  <path
     style="fill:#ffffff;fill-opacity:0;stroke-width:0.03828736"
     inkscape:connector-curvature="0"
     id="path822"
     d="m -29.524299,5.9089045 c -0.219078,0 -0.396636,0.1654486 -0.396636,0.369589 v 6.9852075 c 0,0.203996 0.177558,0.369589 0.396636,0.369589 0.219081,0 0.396638,-0.165593 0.396638,-0.369589 V 6.2784935 c 0,-0.2041404 -0.177557,-0.369589 -0.396638,-0.369589 z m 0,0" />
  <path
     style="fill:#ffffff;fill-opacity:0;stroke-width:0.03828736"
     inkscape:connector-curvature="0"
     id="path824"
     d="m -34.204614,5.9089045 c -0.21908,0 -0.396638,0.1654486 -0.396638,0.369589 v 6.9852075 c 0,0.203996 0.177558,0.369589 0.396638,0.369589 0.219079,0 0.396636,-0.165593 0.396636,-0.369589 V 6.2784935 c 0,-0.2041404 -0.177557,-0.369589 -0.396636,-0.369589 z m 0,0" />
  <path
     style="fill:#ffffff;fill-opacity:1;stroke-width:0.03636687"
     inkscape:connector-curvature="0"
     id="path826"
     d="m -37.128149,4.8895054 v 9.1058666 c 0,0.53821 0.191086,1.043652 0.524887,1.40631 0.332265,0.363668 0.794666,0.570118 1.278595,0.570983 h 6.770528 c 0.484067,-8.3e-4 0.946471,-0.207315 1.278595,-0.570983 0.333801,-0.362658 0.524884,-0.8681 0.524884,-1.40631 V 4.8895054 c 0.663551,-0.1819062 1.093522,-0.8439885 1.004761,-1.5472151 -0.0889,-0.7030829 -0.668862,-1.2290247 -1.355474,-1.2291682 h -1.832138 v -0.461985 c 0.0021,-0.3885005 -0.146631,-0.76155329 -0.412918,-1.03600071 -0.266287,-0.27430308 -0.628044,-0.42704677 -1.004202,-0.42387126 h -3.177545 c -0.376158,-0.003145 -0.737915,0.14956818 -1.004201,0.42387126 -0.266287,0.27444742 -0.415016,0.64750021 -0.41292,1.03600071 v 0.461985 h -1.832135 c -0.686615,1.475e-4 -1.266574,0.5260853 -1.355475,1.2291682 -0.08876,0.7032266 0.34121,1.3653089 1.004758,1.5472151 z m 8.57401,10.3439846 h -6.770528 c -0.611831,0 -1.087791,-0.542833 -1.087791,-1.238118 V 4.9219886 h 8.946109 v 9.0733834 c 0,0.695285 -0.47596,1.238118 -1.08779,1.238118 z M -34.229608,1.6511371 c -0.0024,-0.1924463 0.07086,-0.3776729 0.203105,-0.5135246 0.132101,-0.1358521 0.311855,-0.21049261 0.498327,-0.20717173 h 3.177545 c 0.18647,-0.003324 0.366233,0.071325 0.498328,0.20717173 0.132235,0.1357074 0.20548,0.3210783 0.203104,0.5135246 v 0.461985 h -4.580409 z m -2.547824,1.2011605 h 9.676059 c 0.355743,0 0.644118,0.297836 0.644118,0.665258 0,0.3674221 -0.288375,0.6652574 -0.644118,0.6652574 h -9.676059 c -0.355748,0 -0.644119,-0.2978353 -0.644119,-0.6652574 0,-0.367422 0.288371,-0.665258 0.644119,-0.665258 z m 0,0" />
  <path
     style="fill:#ffffff;fill-opacity:0;stroke-width:0.03636687"
     inkscape:connector-curvature="0"
     id="path828"
     d="m -31.939403,5.9089045 c -0.197653,0 -0.357845,0.1654486 -0.357845,0.369589 v 6.9852075 c 0,0.203996 0.160192,0.369589 0.357845,0.369589 0.197653,0 0.357845,-0.165593 0.357845,-0.369589 V 6.2784935 c 0,-0.2041404 -0.160192,-0.369589 -0.357845,-0.369589 z m 0,0" />
</svg>
